<svg xmlns="http://www.w3.org/2000/svg" version="1.1" xmlns:xlink="http://www.w3.org/1999/xlink" xmlns:svgjs="http://svgjs.com/svgjs" width="1440" height="550" preserveAspectRatio="none" viewBox="0 0 1440 550"><g mask="url(&quot;#SvgjsMask1013&quot;)" fill="none"><rect width="1440" height="550" x="0" y="0" fill="rgba(22, 44, 67, 1)"></rect><path d="M138 131.73C131.38 134.04 130.7 133.38 125.45 138C61.7 194.02 37.43 253 0 253C-25.29 253 0 195.5 0 138C0 69 -34.5 34.5 0 0C34.5 -34.5 69 0 138 0C207 0 207 0 276 0C332.07 0 332.31 -2.26 388.13 0C401.31 0.53 400.88 5.59 414 5.59C448.32 5.59 448.44 1.4 483 0C517.44 -1.4 517.5 0 552 0C621 0 621 0 690 0C759 0 759 0 828 0C897 0 897 0 966 0C1035 0 1035 0 1104 0C1173 0 1173 0 1242 0C1311 0 1311 0 1380 0C1449 0 1480.85 -31.85 1518 0C1549.85 27.3 1527.16 63.36 1518 118.29C1515.66 132.36 1495.19 123.94 1495 138C1494.11 202.79 1517.14 207.22 1515.84 276C1514.53 345.22 1498.97 344.49 1489.77 414C1480.7 482.49 1511.25 511.82 1479.29 552C1456.36 580.82 1429.64 552 1380 552C1311 552 1311 552 1242 552C1173 552 1173 552 1104 552C1035 552 1035 552 966 552C897.94 552 895.11 555.62 829.89 552C826.11 551.79 829.76 547.86 828 544.33C795.3 478.86 786.34 482.18 760.97 414C736.42 348.01 754.02 339.59 728.17 276C718.53 252.29 714.34 242.84 690 239.39C626.26 230.37 621.03 250.62 552 251.06C483.03 251.5 474.49 267.24 414 241.14C343.47 210.71 341.57 196.22 289.97 138C272.57 118.37 296.67 86.28 276 85.43C220.69 83.15 206.66 107.76 138 131.73" stroke="rgba(41, 98, 154, 0.58)" stroke-width="2"></path><path d="M1104 46C1042.25 46 975.2 105.64 975.2 138C975.2 164.88 1039.94 164.47 1104 164.47C1155.18 164.47 1205.68 163.7 1205.68 138C1205.68 104.46 1157.49 46 1104 46" stroke="rgba(41, 98, 154, 0.58)" stroke-width="2"></path><path d="M966 207C964.44 207 962.06 241.8 962.06 276C962.06 281.61 964.41 286.62 966 286.62C967.53 286.62 968.3 281.41 968.3 276C968.3 241.6 967.56 207 966 207" stroke="rgba(41, 98, 154, 0.58)" stroke-width="2"></path><path d="M1242 253C1240.88 253 1244.57 265.63 1239.7 276C1206.78 346.13 1165.69 356.11 1166.43 414C1166.84 445.99 1205.75 455.76 1242 455.76C1270.9 455.76 1296.38 442.58 1296.72 414C1297.46 352.7 1267.82 345.61 1244.16 276C1240.46 265.11 1243.11 253 1242 253" stroke="rgba(41, 98, 154, 0.58)" stroke-width="2"></path><path d="M0 288.18C31.76 288.18 72.51 342.6 111.12 414C141.51 470.2 124.21 543.38 138 543.38C151.83 543.38 134.34 468.78 166.36 414C203.34 350.73 211.36 328.89 276 307.28C335.18 287.49 352.46 303.3 414 331.2C470.17 356.66 465.39 369.95 511.41 414C534.39 436 529.82 440.4 552 463.29C596.69 509.4 645.15 526.27 645.15 552C645.15 570.63 598.58 552 552 552C483 552 483 552 414 552C345 552 345 552 276 552C207 552 207 552 138 552C69 552 34.5 586.5 0 552C-34.5 517.5 0 483 0 414C0 351.09 -23.8 288.18 0 288.18" stroke="rgba(41, 98, 154, 0.58)" stroke-width="2"></path><path d="M0 80.5C6.35 39.68 -7.3 16.78 21.47 0C61.7 -23.47 79.74 0 138 0C190.44 0 242.88 -17.62 242.88 0C242.88 22.1 193.63 44.86 138 79.45C82.65 113.86 77.62 106.06 20.91 138C8.62 144.92 6.24 157.17 0 157.17C-4.22 157.17 0 147.58 0 138C0 109.25 -4.38 108.68 0 80.5" stroke="rgba(41, 98, 154, 0.58)" stroke-width="2"></path><path d="M333.65 138C333.65 97.61 363.81 73.21 414 52.22C472.98 27.56 490.03 64.61 552 46.71C580.41 38.5 567.2 9.33 594.76 0C636.2 -14.03 642.38 0 690 0C739 0 745.02 -13.65 788 0C814.02 8.26 805.8 43.81 828 43.81C855.8 43.81 854.34 10.69 888 0C923.34 -11.22 927 0 966 0C1006.78 0 1047.55 -15.39 1047.55 0C1047.55 20.49 1003.19 32.57 966 71.76C937.7 101.57 934.95 101.38 916.57 138C883.69 203.5 892.07 207.89 863.49 276C847.79 313.42 843.82 349.06 828 349.06C812.86 349.06 824.65 306.12 801.57 276C755.65 216.08 754.65 186.21 690 168.98C629.86 152.95 622.41 200.35 552 209.49C484.41 218.27 476.14 225.17 414 204.82C366.97 189.42 333.65 173.91 333.65 138" stroke="rgba(41, 98, 154, 0.58)" stroke-width="2"></path><path d="M1242 35.78C1227.36 14.26 1203.36 10.32 1203.36 0C1203.36 -7.57 1222.68 0 1242 0C1311 0 1311 0 1380 0C1449 0 1472.97 -23.97 1518 0C1541.97 12.77 1534.02 44.11 1518 73.48C1496.39 113.11 1454.38 95.9 1442.73 138C1426.35 197.16 1469.57 208.84 1461.94 276C1453.89 346.84 1417.68 343.42 1411.36 414C1405.32 481.42 1448.36 502.98 1437.22 552C1432.68 571.98 1408.61 552 1380 552C1311 552 1311 552 1242 552C1173 552 1173 552 1104 552C1035 552 1035 552 966 552C921.58 552 877.15 572.99 877.15 552C877.15 518.94 908.99 468.18 966 443.9C1022.42 419.88 1036.68 441.43 1104 455.4C1174.68 470.06 1178.57 511.57 1242 501.16C1304.68 490.87 1342.49 469.12 1356.21 414C1370.52 356.54 1313.41 347.82 1298.06 276C1283.91 209.82 1312.42 203.21 1297.2 138C1284.39 83.1 1274.28 83.26 1242 35.78" stroke="rgba(41, 98, 154, 0.58)" stroke-width="2"></path><path d="M1025.8 276C1025.8 238.06 1064.9 211.73 1104 211.73C1143.1 211.73 1182.2 238.06 1182.2 276C1182.2 328.84 1143.1 393.3 1104 393.3C1064.9 393.3 1025.8 328.84 1025.8 276" stroke="rgba(41, 98, 154, 0.58)" stroke-width="2"></path><path d="M0 338.91C18.95 338.91 52.77 369.19 66.31 414C84.97 475.73 87.01 504.95 64.4 552C53.85 573.95 10.25 573.95 0 552C-21.95 504.95 0 483 0 414C0 376.46 -14.2 338.91 0 338.91" stroke="rgba(41, 98, 154, 0.58)" stroke-width="2"></path><path d="M213.62 414C223.87 375.62 238 358.08 276 353.28C338.19 345.43 348.17 364.87 414 388.7C432.05 395.23 430.88 399.38 443.76 414C499.88 477.74 497.48 480.09 552 545.43C555.05 549.09 558.9 550.09 558.9 552C558.9 553.38 555.45 552 552 552C483 552 483 552 414 552C345 552 345 552 276 552C249.46 552 231.57 571.14 222.92 552C200.38 502.14 197.33 474.98 213.62 414" stroke="rgba(41, 98, 154, 0.58)" stroke-width="2"></path><path d="M138 27.18C118.4 27.18 98.13 7.44 98.13 0C98.13 -6.15 118.06 0 138 0C155.94 0 173.88 -6.03 173.88 0C173.88 7.56 156.28 27.18 138 27.18" stroke="rgba(41, 98, 154, 0.58)" stroke-width="2"></path><path d="M377.32 138C377.32 119.56 389.55 104.19 414 98.84C476.89 85.08 485.73 87.75 552 99.78C593.55 107.33 629.63 120.63 629.63 138C629.63 154.7 592.55 162.19 552 167.93C484.74 177.45 478.9 179.63 414 168.51C391.56 164.67 377.32 154.4 377.32 138" stroke="rgba(41, 98, 154, 0.58)" stroke-width="2"></path><path d="M690 87.16C666.41 87.16 643.35 29.61 643.35 0C643.35 -13.97 666.67 0 690 0C714 0 738 -14.18 738 0C738 29.4 713.74 87.16 690 87.16" stroke="rgba(41, 98, 154, 0.58)" stroke-width="2"></path><path d="M750.38 138C750.38 112.71 792.64 98.57 828 98.57C849.98 98.57 865.07 115.63 865.07 138C865.07 171.87 852.92 211.06 828 211.06C795.58 211.06 750.38 168.96 750.38 138" stroke="rgba(41, 98, 154, 0.58)" stroke-width="2"></path><path d="M966 2.76C964.48 2.76 963 0.79 963 0C963 -0.59 964.5 0 966 0C967.57 0 969.14 -0.59 969.14 0C969.14 0.79 967.55 2.76 966 2.76" stroke="rgba(41, 98, 154, 0.58)" stroke-width="2"></path><path d="M1366.2 138C1368.57 124.25 1373.77 113.36 1380 113.36C1385.9 113.36 1388.19 124.88 1390.45 138C1402.2 206.2 1411.51 208.76 1408.03 276C1406.28 309.8 1394.01 340.07 1380 340.07C1365.99 340.07 1354.28 309.86 1351.97 276C1347.38 208.83 1354.56 205.57 1366.2 138" stroke="rgba(41, 98, 154, 0.58)" stroke-width="2"></path><path d="M1518 28.68C1498.5 28.68 1461.38 7.58 1461.38 0C1461.38 -6.76 1499.21 -9.52 1518 0C1527.52 4.82 1526.81 28.68 1518 28.68" stroke="rgba(41, 98, 154, 0.58)" stroke-width="2"></path><path d="M1083.3 276C1083.3 265.96 1093.65 258.99 1104 258.99C1114.35 258.99 1124.7 265.96 1124.7 276C1124.7 289.99 1114.35 307.05 1104 307.05C1093.65 307.05 1083.3 289.99 1083.3 276" stroke="rgba(41, 98, 154, 0.58)" stroke-width="2"></path><path d="M0 389.65C6.15 389.65 21.51 398.97 21.51 414C21.51 462.9 5.43 517.5 0 517.5C-5.32 517.5 0 465.75 0 414C0 401.83 -4.61 389.65 0 389.65" stroke="rgba(41, 98, 154, 0.58)" stroke-width="2"></path><path d="M260.88 414C260.88 404.48 266.61 399.28 276 399.28C299.26 399.28 326.18 398.88 326.18 414C326.18 436.91 294.17 475.33 276 475.33C261.52 475.33 260.88 442.5 260.88 414" stroke="rgba(41, 98, 154, 0.58)" stroke-width="2"></path><path d="M924.41 552C924.41 536.53 940.34 501.4 966 501.4C1007.13 501.4 1058 538.52 1058 552C1058 563.82 1012 552 966 552C945.2 552 924.41 561.83 924.41 552" stroke="rgba(41, 98, 154, 0.58)" stroke-width="2"></path><path d="M1212.43 552C1212.43 550.63 1227.66 550.98 1242 546.55C1311.44 525.1 1324.12 498.26 1380 500.25C1400.7 500.99 1395.15 531.8 1395.15 552C1395.15 557.68 1387.57 552 1380 552C1311 552 1311 552 1242 552C1227.22 552 1212.43 553.35 1212.43 552" stroke="rgba(41, 98, 154, 0.58)" stroke-width="2"></path></g><defs><mask id="SvgjsMask1013"><rect width="1440" height="550" fill="#ffffff"></rect></mask></defs></svg>